<svg aria-roledescription="flowchart-v2" role="graphics-document document" viewBox="-8 -8 262.5 977" style="max-width: 262.5px;" xmlns="http://www.w3.org/2000/svg" width="262.5" id="svg" height="977"><style>#svg{font-family:"trebuchet ms",verdana,arial,sans-serif;font-size:16px;fill:#333;}#svg .error-icon{fill:#552222;}#svg .error-text{fill:#552222;stroke:#552222;}#svg .edge-thickness-normal{stroke-width:2px;}#svg .edge-thickness-thick{stroke-width:3.5px;}#svg .edge-pattern-solid{stroke-dasharray:0;}#svg .edge-pattern-dashed{stroke-dasharray:3;}#svg .edge-pattern-dotted{stroke-dasharray:2;}#svg .marker{fill:#333333;stroke:#333333;}#svg .marker.cross{stroke:#333333;}#svg svg{font-family:"trebuchet ms",verdana,arial,sans-serif;font-size:16px;}#svg .label{font-family:"trebuchet ms",verdana,arial,sans-serif;color:#333;}#svg .cluster-label text{fill:#333;}#svg .cluster-label span,#svg p{color:#333;}#svg .label text,#svg span,#svg p{fill:#333;color:#333;}#svg .node rect,#svg .node circle,#svg .node ellipse,#svg .node polygon,#svg .node path{fill:#ECECFF;stroke:#9370DB;stroke-width:1px;}#svg .flowchart-label text{text-anchor:middle;}#svg .node .katex path{fill:#000;stroke:#000;stroke-width:1px;}#svg .node .label{text-align:center;}#svg .node.clickable{cursor:pointer;}#svg .arrowheadPath{fill:#333333;}#svg .edgePath .path{stroke:#333333;stroke-width:2.0px;}#svg .flowchart-link{stroke:#333333;fill:none;}#svg .edgeLabel{background-color:#e8e8e8;text-align:center;}#svg .edgeLabel rect{opacity:0.5;background-color:#e8e8e8;fill:#e8e8e8;}#svg .labelBkg{background-color:rgba(232, 232, 232, 0.5);}#svg .cluster rect{fill:#ffffde;stroke:#aaaa33;stroke-width:1px;}#svg .cluster text{fill:#333;}#svg .cluster span,#svg p{color:#333;}#svg div.mermaidTooltip{position:absolute;text-align:center;max-width:200px;padding:2px;font-family:"trebuchet ms",verdana,arial,sans-serif;font-size:12px;background:hsl(80, 100%, 96.2745098039%);border:1px solid #aaaa33;border-radius:2px;pointer-events:none;z-index:100;}#svg .flowchartTitleText{text-anchor:middle;font-size:18px;fill:#333;}#svg .today{display:none;}#svg .label foreignObject{overflow:visible;}#svg :root{--mermaid-font-family:"trebuchet ms",verdana,arial,sans-serif;}</style><g><marker orient="auto" markerHeight="12" markerWidth="12" markerUnits="userSpaceOnUse" refY="5" refX="6" viewBox="0 0 10 10" class="marker flowchart" id="svg_flowchart-pointEnd"><path style="stroke-width: 1; stroke-dasharray: 1, 0;" class="arrowMarkerPath" d="M 0 0 L 10 5 L 0 10 z"></path></marker><marker orient="auto" markerHeight="12" markerWidth="12" markerUnits="userSpaceOnUse" refY="5" refX="4.5" viewBox="0 0 10 10" class="marker flowchart" id="svg_flowchart-pointStart"><path style="stroke-width: 1; stroke-dasharray: 1, 0;" class="arrowMarkerPath" d="M 0 5 L 10 10 L 10 0 z"></path></marker><marker orient="auto" markerHeight="11" markerWidth="11" markerUnits="userSpaceOnUse" refY="5" refX="11" viewBox="0 0 10 10" class="marker flowchart" id="svg_flowchart-circleEnd"><circle style="stroke-width: 1; stroke-dasharray: 1, 0;" class="arrowMarkerPath" r="5" cy="5" cx="5"></circle></marker><marker orient="auto" markerHeight="11" markerWidth="11" markerUnits="userSpaceOnUse" refY="5" refX="-1" viewBox="0 0 10 10" class="marker flowchart" id="svg_flowchart-circleStart"><circle style="stroke-width: 1; stroke-dasharray: 1, 0;" class="arrowMarkerPath" r="5" cy="5" cx="5"></circle></marker><marker orient="auto" markerHeight="11" markerWidth="11" markerUnits="userSpaceOnUse" refY="5.2" refX="12" viewBox="0 0 11 11" class="marker cross flowchart" id="svg_flowchart-crossEnd"><path style="stroke-width: 2; stroke-dasharray: 1, 0;" class="arrowMarkerPath" d="M 1,1 l 9,9 M 10,1 l -9,9"></path></marker><marker orient="auto" markerHeight="11" markerWidth="11" markerUnits="userSpaceOnUse" refY="5.2" refX="-1" viewBox="0 0 11 11" class="marker cross flowchart" id="svg_flowchart-crossStart"><path style="stroke-width: 2; stroke-dasharray: 1, 0;" class="arrowMarkerPath" d="M 1,1 l 9,9 M 10,1 l -9,9"></path></marker><g class="root"><g class="clusters"><g id="研究循环" class="cluster default flowchart-label"><rect height="403" width="246.5" y="193" x="0" ry="0" rx="0" style=""></rect><g transform="translate(91.25, 193)" class="cluster-label"><foreignObject height="21" width="64"><div style="display: inline-block; white-space: nowrap;" xmlns="http://www.w3.org/1999/xhtml"><span class="nodeLabel">研究循环</span></div></foreignObject></g></g></g><g class="edgePaths"><path marker-end="url(#svg_flowchart-pointEnd)" style="fill:none;" class="edge-thickness-normal edge-pattern-solid flowchart-link LS-A LE-B" id="L-A-B-0" d="M123.25,36L123.25,40.167C123.25,44.333,123.25,52.667,123.25,60.117C123.25,67.567,123.25,74.133,123.25,77.417L123.25,80.7"></path><path marker-end="url(#svg_flowchart-pointEnd)" style="fill:none;" class="edge-thickness-normal edge-pattern-solid flowchart-link LS-B LE-C" id="L-B-C-0" d="M123.25,122L123.25,127.917C123.25,133.833,123.25,145.667,123.25,157.5C123.25,169.333,123.25,181.167,123.25,190.367C123.25,199.567,123.25,206.133,123.25,209.417L123.25,212.7"></path><path marker-end="url(#svg_flowchart-pointEnd)" style="fill:none;" class="edge-thickness-normal edge-pattern-solid flowchart-link LS-C LE-D" id="L-C-D-0" d="M98.1,343.979L95.292,350.733C92.483,357.486,86.867,370.993,87.371,386.376C87.875,401.759,94.5,419.018,97.813,427.648L101.125,436.278"></path><path marker-end="url(#svg_flowchart-pointEnd)" style="fill:none;" class="edge-thickness-normal edge-pattern-solid flowchart-link LS-D LE-C" id="L-D-C-0" d="M144.475,441.225L147.938,431.771C151.4,422.317,158.325,403.408,159.318,388.016C160.312,372.624,155.373,360.749,152.904,354.811L150.435,348.873"></path><path marker-end="url(#svg_flowchart-pointEnd)" style="fill:none;" class="edge-thickness-normal edge-pattern-solid flowchart-link LS-D LE-E" id="L-D-E-0" d="M123.75,571.5L123.667,575.583C123.583,579.667,123.417,587.833,123.333,597.833C123.25,607.833,123.25,619.667,123.25,630.617C123.25,641.567,123.25,651.633,123.25,656.667L123.25,661.7"></path><path marker-end="url(#svg_flowchart-pointEnd)" style="fill:none;" class="edge-thickness-normal edge-pattern-solid flowchart-link LS-E LE-F" id="L-E-F-0" d="M123.25,703L123.25,707.167C123.25,711.333,123.25,719.667,123.25,727.117C123.25,734.567,123.25,741.133,123.25,744.417L123.25,747.7"></path><path marker-end="url(#svg_flowchart-pointEnd)" style="fill:none;" class="edge-thickness-normal edge-pattern-solid flowchart-link LS-F LE-G" id="L-F-G-0" d="M123.25,789L123.25,793.167C123.25,797.333,123.25,805.667,123.25,813.117C123.25,820.567,123.25,827.133,123.25,830.417L123.25,833.7"></path><path marker-end="url(#svg_flowchart-pointEnd)" style="fill:none;" class="edge-thickness-normal edge-pattern-solid flowchart-link LS-G LE-H" id="L-G-H-0" d="M123.25,875L123.25,879.167C123.25,883.333,123.25,891.667,123.25,899.117C123.25,906.567,123.25,913.133,123.25,916.417L123.25,919.7"></path></g><g class="edgeLabels"><g class="edgeLabel"><g transform="translate(0, 0)" class="label"><foreignObject height="0" width="0"><div style="display: inline-block; white-space: nowrap;" xmlns="http://www.w3.org/1999/xhtml"><span class="edgeLabel"></span></div></foreignObject></g></g><g transform="translate(123.25, 157.5)" class="edgeLabel"><g transform="translate(-32, -10.5)" class="label"><foreignObject height="21" width="64"><div style="display: inline-block; white-space: nowrap;" xmlns="http://www.w3.org/1999/xhtml"><span class="edgeLabel">并行分支</span></div></foreignObject></g></g><g transform="translate(81.25, 384.5)" class="edgeLabel"><g transform="translate(-32, -10.5)" class="label"><foreignObject height="21" width="64"><div style="display: inline-block; white-space: nowrap;" xmlns="http://www.w3.org/1999/xhtml"><span class="edgeLabel">结果汇总</span></div></foreignObject></g></g><g transform="translate(165.25, 384.5)" class="edgeLabel"><g transform="translate(-32, -10.5)" class="label"><foreignObject height="21" width="64"><div style="display: inline-block; white-space: nowrap;" xmlns="http://www.w3.org/1999/xhtml"><span class="edgeLabel">信息不足</span></div></foreignObject></g></g><g transform="translate(123.25, 631.5)" class="edgeLabel"><g transform="translate(-32, -10.5)" class="label"><foreignObject height="21" width="64"><div style="display: inline-block; white-space: nowrap;" xmlns="http://www.w3.org/1999/xhtml"><span class="edgeLabel">信息充足</span></div></foreignObject></g></g><g class="edgeLabel"><g transform="translate(0, 0)" class="label"><foreignObject height="0" width="0"><div style="display: inline-block; white-space: nowrap;" xmlns="http://www.w3.org/1999/xhtml"><span class="edgeLabel"></span></div></foreignObject></g></g><g class="edgeLabel"><g transform="translate(0, 0)" class="label"><foreignObject height="0" width="0"><div style="display: inline-block; white-space: nowrap;" xmlns="http://www.w3.org/1999/xhtml"><span class="edgeLabel"></span></div></foreignObject></g></g><g class="edgeLabel"><g transform="translate(0, 0)" class="label"><foreignObject height="0" width="0"><div style="display: inline-block; white-space: nowrap;" xmlns="http://www.w3.org/1999/xhtml"><span class="edgeLabel"></span></div></foreignObject></g></g></g><g class="nodes"><g transform="translate(123.25, 283.5)" data-id="C" data-node="true" id="flowchart-C-3" class="node default default flowchart-label"><circle height="36" width="131" r="65.5" ry="0" rx="0" style=""></circle><g transform="translate(-58, -10.5)" style="" class="label"><rect></rect><foreignObject height="21" width="116"><div style="display: inline-block; white-space: nowrap;" xmlns="http://www.w3.org/1999/xhtml"><span class="nodeLabel">2. 并行执行搜索</span></div></foreignObject></g></g><g transform="translate(123.25, 495.5)" data-id="D" data-node="true" id="flowchart-D-5" class="node default default flowchart-label"><polygon style="" transform="translate(-75.5,75.5)" class="label-container" points="75.5,0 151,-75.5 75.5,-151 0,-75.5"></polygon><g transform="translate(-50, -10.5)" style="" class="label"><rect></rect><foreignObject height="21" width="100"><div style="display: inline-block; white-space: nowrap;" xmlns="http://www.w3.org/1999/xhtml"><span class="nodeLabel">3. 反思与优化</span></div></foreignObject></g></g><g transform="translate(123.25, 18)" data-id="A" data-node="true" id="flowchart-A-0" class="node default default flowchart-label"><rect height="36" width="47" y="-18" x="-23.5" ry="0" rx="0" style="" class="basic label-container"></rect><g transform="translate(-16, -10.5)" style="" class="label"><rect></rect><foreignObject height="21" width="32"><div style="display: inline-block; white-space: nowrap;" xmlns="http://www.w3.org/1999/xhtml"><span class="nodeLabel">开始</span></div></foreignObject></g></g><g transform="translate(123.25, 104)" data-id="B" data-node="true" id="flowchart-B-1" class="node default default flowchart-label"><rect height="36" width="131" y="-18" x="-65.5" ry="5" rx="5" style="" class="basic label-container"></rect><g transform="translate(-58, -10.5)" style="" class="label"><rect></rect><foreignObject height="21" width="116"><div style="display: inline-block; white-space: nowrap;" xmlns="http://www.w3.org/1999/xhtml"><span class="nodeLabel">1. 生成初始查询</span></div></foreignObject></g></g><g transform="translate(123.25, 685)" data-id="E" data-node="true" id="flowchart-E-9" class="node default default flowchart-label"><rect height="36" width="147" y="-18" x="-73.5" ry="5" rx="5" style="" class="basic label-container"></rect><g transform="translate(-66, -10.5)" style="" class="label"><rect></rect><foreignObject height="21" width="132"><div style="display: inline-block; white-space: nowrap;" xmlns="http://www.w3.org/1999/xhtml"><span class="nodeLabel">4. 自动化资源管理</span></div></foreignObject></g></g><g transform="translate(123.25, 771)" data-id="F" data-node="true" id="flowchart-F-11" class="node default default flowchart-label"><rect height="36" width="132" y="-18" x="-66" ry="5" rx="5" style="" class="basic label-container"></rect><g transform="translate(-58.5, -10.5)" style="" class="label"><rect></rect><foreignObject height="21" width="117"><div style="display: inline-block; white-space: nowrap;" xmlns="http://www.w3.org/1999/xhtml"><span class="nodeLabel">5. RAG知识合成</span></div></foreignObject></g></g><g transform="translate(123.25, 857)" data-id="G" data-node="true" id="flowchart-G-13" class="node default default flowchart-label"><rect height="36" width="147" y="-18" x="-73.5" ry="5" rx="5" style="" class="basic label-container"></rect><g transform="translate(-66, -10.5)" style="" class="label"><rect></rect><foreignObject height="21" width="132"><div style="display: inline-block; white-space: nowrap;" xmlns="http://www.w3.org/1999/xhtml"><span class="nodeLabel">6. 自动化报告生成</span></div></foreignObject></g></g><g transform="translate(123.25, 943)" data-id="H" data-node="true" id="flowchart-H-15" class="node default default flowchart-label"><rect height="36" width="47" y="-18" x="-23.5" ry="0" rx="0" style="" class="basic label-container"></rect><g transform="translate(-16, -10.5)" style="" class="label"><rect></rect><foreignObject height="21" width="32"><div style="display: inline-block; white-space: nowrap;" xmlns="http://www.w3.org/1999/xhtml"><span class="nodeLabel">结束</span></div></foreignObject></g></g></g></g></g></svg>